# xmcd
#
# Track frame offsets:
#	150
#	17349
#	31020
#	46611
#	57747
#	76407
#	93002
#	106688
#	119231
#	137614
#	159323
#	178206
#	191713
#	207767
#	230992
#	252386
#	267649
#	287658
#	303185
#
# Disc length: 4299 seconds
#
# Revision: 0
# Processed by: cddbd v1.5.2PL0 Copyright (c) Steve Scherf et al.
# Submitted via: audiograbber 1.83.01
#
DISCID=0510c913
DTITLE=JonesTM - HC200831
DYEAR=2008
DGENRE=Country
TTITLE0=Trace Adkins - Muddy Water
TTITLE1=Darryl Worley - Tequila On Ice
TTITLE2=Tim McGraw - Let It Go [Radio Edit]
TTITLE3=Billy Craig - Flip Flops [Album Version]
TTITLE4=Whitney Duncan - When I Said I Would
TTITLE5=Rogers Randy Band - In My Arms Instead [Long Intro]
TTITLE6=Kristy Lee Cook - 15 Minutes Of Shame [Radio Edit]
TTITLE7=Kenny Chesney - Everybody Wants To Go To Heaven
TTITLE8=Raheem DeVaughn - Text Messages [Main]
TTITLE9=Lyfe Jennings - Will I Ever [Album Version]
TTITLE10=L.A. Chillharmonic Feat. Richard Smith - Boogie On Reggae Woman [Album
TTITLE10=Version]
TTITLE11=Natalie Cole Duet with Nat King Cole - Walkin' My Baby Back Home
TTITLE12=Al Williams III Feat. Scott Ambush and Tom Schuman - Skyline Drive
TTITLE13=Dave Stewart Feat. Candy Dulfer - Lily Was Here [Album Version]
TTITLE14=Terrence Howard - Sanctuary [Instrumental]
TTITLE15=Al Williams III - Midnight In Morocco
TTITLE16=Robin Avery - Light The Way
TTITLE17=Wayne Brady - Ordinary
TTITLE18=Euge Groove - Religify
EXTD=
EXTT0=
EXTT1=
EXTT2=
EXTT3=
EXTT4=
EXTT5=
EXTT6=
EXTT7=
EXTT8=
EXTT9=
EXTT10=
EXTT11=
EXTT12=
EXTT13=
EXTT14=
EXTT15=
EXTT16=
EXTT17=
EXTT18=
PLAYORDER=
